<svg aria-hidden="true" style="width:0;height:0;position:absolute;overflow:hidden" xmlns="http://www.w3.org/2000/svg"><defs><symbol id="icon-arrow" viewBox="0 0 22 32"><path d="M3.103.726a2.4 2.4 0 0 0 0 3.394L14.983 16 3.103 27.88a2.398 2.398 0 0 0 1.705 4.067 2.393 2.393 0 0 0 1.688-.674l13.577-13.577a2.4 2.4 0 0 0 0-3.394L6.496.725a2.4 2.4 0 0 0-3.394 0z"/></symbol><symbol id="icon-arrow" viewBox="0 0 32 32"><path d="m27.414 12.586-10-10a2 2 0 0 0-2.828 0l-10 10a2 2 0 1 0 2.828 2.828L14 8.828V28a2 2 0 1 0 4 0V8.828l6.586 6.586c.39.39.902.586 1.414.586s1.024-.195 1.414-.586a2 2 0 0 0 0-2.828z"/></symbol></defs></svg>